<svg id="fc04d38a-2ff6-4409-b7cc-a7ce170fb0ab" data-name="Слой 1" xmlns="http://www.w3.org/2000/svg" viewBox="0 0 88.75 40.86"><title>car-icon</title><path d="M12.61,28a2,2,0,1,0,2.05,2,2,2,0,0,0-2.05-2" transform="translate(0.38 0.38)" style="stroke:#fff;stroke-miterlimit:10;stroke-width:0.75px"/><path d="M73.12,28a2,2,0,1,0,2,2,2,2,0,0,0-2-2" transform="translate(0.38 0.38)" style="stroke:#fff;stroke-miterlimit:10;stroke-width:0.75px"/><path d="M84.79,29.33l-1.6.64A10.07,10.07,0,0,0,63.05,30c0,.39-.6.74-.6.74H22.69a4.57,4.57,0,0,0,0-.74A10.07,10.07,0,0,0,3.2,26.48a17.57,17.57,0,0,1-.13-4.36c0-.73.26-1.18.53-1.21L5.13,21l0-1.54C4.94,9.94,10.31,5,12.5,4.8c0,.1,0,6.88,0,6.88s49.73-.07,51.42,0,4.46,2.45,4.64,2.5c9.33,1.8,12.61,3.94,13.06,4.25a16.64,16.64,0,0,1,2.78,4.81l.66,1.66v1.74A12,12,0,0,1,84.79,29.33ZM66,30a7.14,7.14,0,1,1,7.13,7.13A7.14,7.14,0,0,1,66,30ZM12.61,37.17A7.14,7.14,0,1,1,19.75,30,7.14,7.14,0,0,1,12.61,37.17Zm2.9-34.1S35,2.9,36,3V8.74H15.51Zm44,5.67H39V2.87a16.69,16.69,0,0,0,2.85,0C49.28,2.86,56.87,7.26,59.51,8.74ZM83.7,16.36l-.14-.14c-.34-.28-3.6-2.83-14.36-4.91a8.6,8.6,0,0,1-1.78-.72L54.3,3.24C54.12,3.14,49.87.65,42.38.39c-.45,0-6.76-.5-14.79-.37-2.46,0-4.78.12-6.93.27A94.92,94.92,0,0,0,8.38,1.79L6,2.25l1.5,1.91c-1.9,1.77-5.22,6-5.36,14.18a4,4,0,0,0-2,3.52c0,.27-1,7.08,2.53,9.81a10.09,10.09,0,0,0,9.93,8.44,12,12,0,0,0,10.18-6.4H63.92c1.57,3.52,5.1,6.4,9.2,6.4a10.09,10.09,0,0,0,9.5-6.75l4.57-1.83.22-.65A14,14,0,0,0,88,26.61V24.34l-.85-2.13A19,19,0,0,0,83.7,16.36Z" transform="translate(0.38 0.38)" style="stroke:#fff;stroke-miterlimit:10;stroke-width:0.75px"/></svg>