<svg id="677f2acb-f769-4c8c-9d4f-15f0b1ddc49a" data-name="Слой 1" xmlns="http://www.w3.org/2000/svg" viewBox="0 0 88 70"><title>camera-icon</title><path d="M28.81,0a2,2,0,0,0-1.53,1l-6.4,11H8a8,8,0,0,0-8,8V62a8,8,0,0,0,8,8H80a8,8,0,0,0,8-8V20a8,8,0,0,0-8-8H67.12L60.72,1A2,2,0,0,0,59,0H28.81Zm1.31,4H57.88l6.4,11A2,2,0,0,0,66,16H80a4,4,0,0,1,4,4V62a4,4,0,0,1-4,4H8a4,4,0,0,1-4-4V20a4,4,0,0,1,4-4H22a2,2,0,0,0,1.72-1ZM44,19A20,20,0,1,0,64,39,20,20,0,0,0,44,19Zm0,4A16,16,0,1,1,28,39,16,16,0,0,1,44,23Z"/></svg>