<svg id="021f5228-2835-4743-bfcb-ff27800245c3" data-name="Слой 1" xmlns="http://www.w3.org/2000/svg" viewBox="0 0 52.99 51.39"><title>communications-icon</title><path d="M42.43,29.07H17.94a3.38,3.38,0,1,1,0-6.75H42.42a10.57,10.57,0,1,0,0-21.13H4.82V.75A.76.76,0,0,0,4.07,0H.75A.76.76,0,0,0,0,.75V8.82a.76.76,0,0,0,.75.75H4.07a.76.76,0,0,0,.75-.75V8.38h37.6a3.38,3.38,0,1,1,0,6.75H17.94a10.57,10.57,0,0,0,0,21.13H42.42a3.38,3.38,0,1,1,0,6.75H4.82v-.44a.76.76,0,0,0-.75-.75H.75a.76.76,0,0,0-.75.75v8.07a.76.76,0,0,0,.75.75H4.07a.76.76,0,0,0,.75-.75V50.2h37.6a10.57,10.57,0,0,0,0-21.13ZM3.32,8.07H1.5V1.5H3.32Zm0,41.82H1.5V43.32H3.32ZM42.43,48.7H4.82V44.51h37.6a4.88,4.88,0,1,0,0-9.75H17.94a9.07,9.07,0,0,1,0-18.13H42.42a4.88,4.88,0,1,0,0-9.75H4.82V2.69h37.6a9.07,9.07,0,1,1,0,18.13H17.94a4.88,4.88,0,1,0,0,9.75H42.42a9.07,9.07,0,0,1,0,18.13Z"/></svg>