<svg id="85dae04c-6c90-409c-9b5f-e2fc884c00c5" data-name="Слой 1" xmlns="http://www.w3.org/2000/svg" viewBox="0 0 58.64 57.83"><title>cost-icon</title><path d="M42.84,57.83A15.83,15.83,0,0,1,27,42a16.58,16.58,0,0,1,1.1-5.8l1.9.7a14.26,14.26,0,0,0-.9,5,13.8,13.8,0,1,0,13.8-13.8c-.3,0-1.9.4-3.2.7l-.6-1.9a23,23,0,0,1,3.7-.8,15.85,15.85,0,0,1,0,31.7Z"/><path d="M42.14,43.23a13,13,0,0,1-3.8-.5l-.2-.1L19,32.13l-15.5-3.6a4.46,4.46,0,0,1-2.9-2.1,5,5,0,0,1-.5-3.6l3.4-14.1a4.52,4.52,0,0,1,3.7-3.2L29.94.13a11.94,11.94,0,0,1,9.3,2.6l12.2,8.6c2.1,1.7,3.5,2.9,3,6.1l-2.3,11.7-2-.4L52.34,17c.3-2.1-.3-2.6-2.3-4.3l-.2-.2-11.9-8.4a9.91,9.91,0,0,0-7.7-2.2L7.54,7.33a2.36,2.36,0,0,0-2.1,1.8L2,23.23a2.75,2.75,0,0,0,.2,2,2.48,2.48,0,0,0,1.6,1.2l15.9,3.7,19.1,10.5c1.6.4,5.8.9,7.2-1.1a4.63,4.63,0,0,0,.1-5.7l-17.3-13.5.2-.7a5.35,5.35,0,0,1,3.7-3.6c.1-.1.6-.5.9-.8.9-.9,1.6-1.5,2.4-1.3a1,1,0,0,1,.8.7c1.1,2.6,4.2,3.4,6,3.9,1.1.3,1.9.5,2,1.4V20l-1,8.1-2-.2.9-7.3a4.33,4.33,0,0,0-.5-.1c-1.9-.5-5.2-1.4-7-4.2-.2.2-.4.3-.5.5a5.45,5.45,0,0,1-1.7,1.3,3.71,3.71,0,0,0-2.1,1.7l16.6,13a6.52,6.52,0,0,1,.1,8.3C46.54,42.83,44.14,43.23,42.14,43.23Z"/></svg>