<svg id="a2b7187c-e369-45f4-96de-49bdc5f81f69" data-name="Слой 1" xmlns="http://www.w3.org/2000/svg" viewBox="0 0 68.5 68"><title>heating-icon</title><path d="M31,59.3V23.5a7.5,7.5,0,0,0-15,0V59.3a13.5,13.5,0,1,0,15,0ZM23.5,81a10.49,10.49,0,0,1-5.2-19.6,1.46,1.46,0,0,0,.7-1.3V23.5a4.5,4.5,0,0,1,9,0V60.1a1.71,1.71,0,0,0,.7,1.3A10.76,10.76,0,0,1,34,70.5,10.5,10.5,0,0,1,23.5,81Z" transform="translate(-10 -16)"/><path d="M25,63.2V31.5a1.5,1.5,0,0,0-3,0V63.2a7.48,7.48,0,1,0,9,7.3A7.42,7.42,0,0,0,25,63.2Z" transform="translate(-10 -16)"/><line x1="31.67" y1="14" x2="67" y2="14" style="fill:none;stroke:#000;stroke-linecap:round;stroke-miterlimit:10;stroke-width:3px"/><line x1="31.67" y1="27.02" x2="55.67" y2="27.02" style="fill:none;stroke:#000;stroke-linecap:round;stroke-miterlimit:10;stroke-width:3px"/><line x1="31.67" y1="40.05" x2="43.67" y2="40.05" style="fill:none;stroke:#000;stroke-linecap:round;stroke-miterlimit:10;stroke-width:3px"/><circle cx="13.51" cy="54.4" r="4.08" style="fill:#fff"/></svg>