<svg id="04ecd17f-0e12-4a42-a83f-4ac5a78e3ab4" data-name="Слой 1" xmlns="http://www.w3.org/2000/svg" viewBox="0 0 33.94 33.94"><title>layout-icon</title><polygon points="16.97 1.41 18.39 2.83 19.09 2.12 16.97 0 14.85 2.12 15.56 2.83 16.97 1.41"/><polygon points="2.83 18.39 1.41 16.97 2.83 15.56 2.12 14.85 0 16.97 2.12 19.09 2.83 18.39"/><rect x="12.08" y="4.1" width="2" height="1" transform="translate(0.58 10.6) rotate(-45)"/><rect x="9.25" y="6.92" width="2" height="1" transform="translate(-2.25 9.42) rotate(-45)"/><rect x="6.42" y="9.75" width="2" height="1" transform="translate(-5.08 8.25) rotate(-45)"/><rect x="3.6" y="12.58" width="2" height="1" transform="translate(-7.9 7.08) rotate(-45)"/><polygon points="16.97 32.53 15.56 31.11 14.85 31.82 16.97 33.94 19.09 31.82 18.39 31.11 16.97 32.53"/><polygon points="31.11 15.56 32.53 16.97 31.11 18.39 31.82 19.09 33.94 16.97 31.82 14.85 31.11 15.56"/><rect x="19.86" y="28.84" width="2" height="1" transform="translate(-14.64 23.34) rotate(-45)"/><rect x="22.69" y="26.02" width="2" height="1" transform="translate(-11.81 24.52) rotate(-45)"/><rect x="25.52" y="23.19" width="2" height="1" transform="translate(-8.98 25.69) rotate(-45)"/><rect x="28.34" y="20.36" width="2" height="1" transform="translate(-6.16 26.86) rotate(-45)"/><rect x="28.84" y="12.08" width="1" height="2" transform="translate(-0.66 24.58) rotate(-45)"/><rect x="26.02" y="9.25" width="1" height="2" transform="translate(0.52 21.75) rotate(-45)"/><rect x="23.19" y="6.42" width="1" height="2" transform="translate(1.69 18.92) rotate(-45)"/><rect x="20.36" y="3.6" width="1" height="2" transform="translate(2.86 16.1) rotate(-45)"/><rect x="4.1" y="19.86" width="1" height="2" transform="translate(-13.4 9.36) rotate(-45)"/><rect x="6.92" y="22.69" width="1" height="2" transform="translate(-14.58 12.19) rotate(-45)"/><rect x="9.75" y="25.52" width="1" height="2" transform="translate(-15.75 15.02) rotate(-45)"/><rect x="12.58" y="28.34" width="1" height="2" transform="translate(-16.92 17.84) rotate(-45)"/></svg>