<svg xmlns="http://www.w3.org/2000/svg" viewBox="0 0 197.2 67.83">
    <path d="M384.56,552.07c0-.4,0-.52,0-1.06l0-.61c0,.06,0-.5,0-.44v-.19l-3.81.25v0c0,.22,0,.43,0,.65l.08,2.3v.93a58.29,58.29,0,0,1-.67,9,35.75,35.75,0,0,0,4.05-1.39,63.72,63.72,0,0,0,.44-7.55c0-.4,0-.8,0-1.2v-.66ZM345.4,568.6l-10.63-3.09,2.06-2.23c-2.64-2.48-4.57-5.65-4.57-9.36a11.88,11.88,0,0,1,2.86-7.53,25.87,25.87,0,0,1,10.48-7.2c-.36,1.52-.66,3-.9,4.6a23.7,23.7,0,0,0-4.93,3.26,10.12,10.12,0,0,0-3.61,5.85,7.1,7.1,0,0,0,.81,4.45,12,12,0,0,0,2.46,3.12l2.06-2.23,3.91,10.36ZM358.63,536a63.26,63.26,0,0,1,7.54-.47,58.42,58.42,0,0,1,16.47,2.27c7.29,2.15,17.39,7.32,17.44,16.15a11.86,11.86,0,0,1-2.86,7.53c-6.75,8.24-21,10.89-31.05,10.89a59.86,59.86,0,0,1-8.47-.57l.52-3.79a55.4,55.4,0,0,0,7.95.54c8.51,0,19.78-1.95,26.41-7.73,2-1.79,3.66-4.07,3.69-6.87,0-4.57-4.43-7.9-8.09-9.84-6.55-3.43-14.68-4.76-22-4.76a59.42,59.42,0,0,0-9,.69,35.7,35.7,0,0,1,1.42-4Zm17.66,39.41c1.53-.24,3.07-.53,4.59-.89-2.67,6.48-7.46,13.3-14.71,13.35a12,12,0,0,1-7.53-2.86c-8.24-6.76-10.89-21-10.89-31.06A58.42,58.42,0,0,1,350,537.45c2.15-7.29,7.32-17.39,16.15-17.44,4.57,0,8.25,2.91,10.88,6.4l2.45-1.81,1.91,10.9-9.87-5,2.44-1.81c-1.82-2.47-4.6-4.85-7.81-4.85-4.57,0-7.9,4.43-9.84,8.09-3.43,6.54-4.76,14.68-4.76,22,0,8.51,1.95,19.78,7.73,26.41,1.8,2,4.07,3.66,6.87,3.68,4.57,0,7.9-4.42,9.84-8.08Z" transform="translate(-332.26 -520.01)"/>
    <path d="M417.24,564.61h-3.61V543h3.61Z" transform="translate(-332.26 -520.01)"/>
    <path d="M425,548.55l.21,2.31a5.79,5.79,0,0,1,2-1.92,5.26,5.26,0,0,1,2.69-.69,5.06,5.06,0,0,1,3.91,1.52,6.83,6.83,0,0,1,1.4,4.75v10.09h-3.6V554.55a3.62,3.62,0,0,0-.75-2.58,3.06,3.06,0,0,0-2.28-.76,3.81,3.81,0,0,0-1.89.46,3.9,3.9,0,0,0-1.36,1.29v11.65h-3.61V548.55Z" transform="translate(-332.26 -520.01)"/>
    <path d="M446.25,559l.39,1.5h.09l.37-1.47,5.16-16h3.85l-7.72,21.61H445L437.25,543h3.85Z" transform="translate(-332.26 -520.01)"/>
    <path d="M462.08,544.61h-3.61v-3.16h3.61Zm0,20h-3.61V548.55h3.61Z" transform="translate(-332.26 -520.01)"/>
    <path d="M473,564.93a7,7,0,0,1-5.45-2.24,8.21,8.21,0,0,1-2-5.74v-.59a8.5,8.5,0,0,1,2-5.81,6.36,6.36,0,0,1,5-2.3,6.28,6.28,0,0,1,5,2,7.67,7.67,0,0,1,1.73,5.28v2.12h-10l0,.07a5,5,0,0,0,1.12,3.13,3.55,3.55,0,0,0,2.86,1.21,7.61,7.61,0,0,0,2.49-.36,8.11,8.11,0,0,0,2-1l1.16,2.36a7.54,7.54,0,0,1-2.41,1.36A10,10,0,0,1,473,564.93Zm-.42-13.78a2.71,2.71,0,0,0-2.2,1.06,5.26,5.26,0,0,0-1.07,2.69l0,.08h6.37v-.37a3.87,3.87,0,0,0-.78-2.5A2.84,2.84,0,0,0,472.59,551.15Z" transform="translate(-332.26 -520.01)"/>
    <path d="M496.35,560h.09L499,548.55h3.45L498,564.61h-3l-3.41-11,0-.15v.15l-3.39,11h-2.95l-4.4-16.06h3.46l2.57,11.25.09,0,3.34-11.27H493Z" transform="translate(-332.26 -520.01)"/>
    <path d="M511.82,564.93a7,7,0,0,1-5.44-2.24,8.22,8.22,0,0,1-2-5.74v-.59a8.5,8.5,0,0,1,2-5.81,6.36,6.36,0,0,1,5-2.3,6.28,6.28,0,0,1,5,2,7.67,7.67,0,0,1,1.73,5.28v2.12h-10l0,.07a5,5,0,0,0,1.12,3.13A3.55,3.55,0,0,0,512,562a7.72,7.72,0,0,0,2.5-.36,8,8,0,0,0,2-1L517.7,563a7.54,7.54,0,0,1-2.41,1.36A10,10,0,0,1,511.82,564.93Zm-.42-13.78a2.68,2.68,0,0,0-2.19,1.06,5.09,5.09,0,0,0-1.07,2.69l0,.08h6.37v-.37a3.87,3.87,0,0,0-.78-2.5A2.87,2.87,0,0,0,511.4,551.15Z" transform="translate(-332.26 -520.01)"/>
    <path d="M529,551.8l-1.55-.06a3.22,3.22,0,0,0-1.76.45,2.87,2.87,0,0,0-1.09,1.26v11.16H521V548.55h3.3l.24,2.33a5.21,5.21,0,0,1,1.56-1.93,3.64,3.64,0,0,1,2.21-.7,3.86,3.86,0,0,1,.61,0l.52.13Z" transform="translate(-332.26 -520.01)"/>
    <path d="M366.27,548.22a5.57,5.57,0,1,1-5.57,5.57,5.58,5.58,0,0,1,5.57-5.57m0-3a8.57,8.57,0,1,0,8.57,8.57,8.57,8.57,0,0,0-8.57-8.57Z" transform="translate(-332.26 -520.01)"/>
    <polygon points="38.03 27.43 35.94 25.44 34.01 33.78 41.02 28.96 38.03 27.43" />
</svg>
