<svg xmlns="http://www.w3.org/2000/svg" viewBox="0 0 47.05 87.01"><path d="M57.1,73.91,50.35,62.66,45.59,76,36.18,90.3h0c-1.53,2.6-3.32,4.25-5.86,3.54s-4.29-3.52-3.12-6l9.61-15.93L41,56.59a9,9,0,0,0-.62-3.66,10.07,10.07,0,0,1-.27-5l2.49-14.3L36.41,39,33.87,49.84c-.4,2.27-1.63,4-3.73,4A3.63,3.63,0,0,1,26.49,50h0l3.27-13.48A4.9,4.9,0,0,1,31.66,33l13.55-9.71a12.14,12.14,0,0,1,13,2.44l6.58,13.15,7.43,5.67c1.59,1.72,1.8,4.12.24,5.58-1.35,1.26-3.92.41-5.2-.91L60.81,44.3c-1.28-.76-4.2-6.85-4.2-6.85l-2,12.88a3.29,3.29,0,0,0,.48,2.6L65.25,69.19l2.83,18.65h0c.67,3.06-.69,5.26-3,5.86a4.37,4.37,0,0,1-5.41-3.29Z" transform="translate(-26.48 -7)"/><ellipse cx="56.08" cy="14.36" rx="7.1" ry="7.37" transform="translate(-28.14 3.34) rotate(-10.38)"/></svg>
