<svg 
 xmlns="http://www.w3.org/2000/svg"
 xmlns:xlink="http://www.w3.org/1999/xlink" viewBox="0 0 26 21">
<path fill-rule="evenodd" 
 d="M24.500,12.000 L1.500,12.000 C0.672,12.000 -0.000,11.328 -0.000,10.500 C-0.000,9.672 0.672,9.000 1.500,9.000 L24.500,9.000 C25.328,9.000 26.000,9.672 26.000,10.500 C26.000,11.328 25.328,12.000 24.500,12.000 ZM24.500,3.000 L1.500,3.000 C0.672,3.000 -0.000,2.329 -0.000,1.500 C-0.000,0.671 0.672,0.000 1.500,0.000 L24.500,0.000 C25.328,0.000 26.000,0.671 26.000,1.500 C26.000,2.329 25.328,3.000 24.500,3.000 ZM1.500,18.000 L24.500,18.000 C25.328,18.000 26.000,18.672 26.000,19.500 C26.000,20.328 25.328,21.000 24.500,21.000 L1.500,21.000 C0.672,21.000 -0.000,20.328 -0.000,19.500 C-0.000,18.672 0.672,18.000 1.500,18.000 Z"/>
</svg>
