<svg xmlns="http://www.w3.org/2000/svg" viewBox="0 0 84.51 84.67"><path d="M87.8,65.1,71.7,56.8a8.37,8.37,0,0,0-10.4,2.3L57,64.6a52.65,52.65,0,0,1-12.2-9.4,54.44,54.44,0,0,1-9.5-12.5l5.5-4.3A8.47,8.47,0,0,0,43.1,28L34.8,12a8.38,8.38,0,0,0-12-3.1L12.6,15.7a11.07,11.07,0,0,0-4.9,9.9A57,57,0,0,0,9,35.3c3.1,12,10.5,24.3,20.9,34.7S52.6,87.8,64.6,90.9a58.56,58.56,0,0,0,9.7,1.3H75a11,11,0,0,0,9.2-5l6.7-10.3a8.36,8.36,0,0,0-3.1-11.8Zm-1.9,8.6L79.2,84a5.09,5.09,0,0,1-4.5,2.3,46.66,46.66,0,0,1-8.6-1.1c-10.9-2.8-22.3-9.7-31.9-19.4s-16.5-21-19.4-31.9a46.66,46.66,0,0,1-1.1-8.6,5,5,0,0,1,2.2-4.5L26.1,14a2.42,2.42,0,0,1,1.3-.4,1.27,1.27,0,0,1,.6.1,2.29,2.29,0,0,1,1.5,1.2l8.3,16a2.44,2.44,0,0,1-.6,2.9l-9.5,7.4,1.2,2.2A60.21,60.21,0,0,0,40.7,59.5,62.34,62.34,0,0,0,56.6,71.1l2.2,1.2,7.5-9.6a2.31,2.31,0,0,1,2.9-.6l16.1,8.3a2.29,2.29,0,0,1,1.2,1.5A3.85,3.85,0,0,1,85.9,73.7Z" transform="translate(-7.68 -7.53)" /></svg>
