<svg id="ae6d8b5e-3a13-48e7-835e-f8502a94098b" data-name="Слой 1" xmlns="http://www.w3.org/2000/svg" viewBox="0 0 37.5 50"><title>pins-icon</title><path d="M18.75,50a1,1,0,0,1-.76-.34c-.73-.85-18-20.85-18-30.91a18.75,18.75,0,0,1,37.5,0c0,10.06-17.26,30.06-18,30.91A1,1,0,0,1,18.75,50Zm0-48A16.76,16.76,0,0,0,2,18.75C2,27,15.39,43.45,18.75,47.46c3.36-4,16.75-20.52,16.75-28.71A16.77,16.77,0,0,0,18.75,2Z"/><path d="M18.75,28.07a9.32,9.32,0,0,1-.09-18.64h.09a9.32,9.32,0,0,1,.09,18.64Zm0-16.64h-.07a7.36,7.36,0,1,0,.07,0Z"/></svg>